#!OML:ASF H:\Not Pregnant\Project 1\Capture day 1\Session 1\non-pregnant.ASF
:FULLY-SPECIFIED
:DEGREES
923
root 3.00662 1.20518 18.3259 -101.685 -5.27508 0.345605
lowerback 12.9065 0.0579836 1.39198
upperback 2.42866 0.163616 -1.9863
thorax -4.67143 0.0507813 -2.89856
lowerneck 15.9981 -9.97832 -29.8424
upperneck -5.40069 -21.4562 44.4719
head 5.39225 -12.6864 22.5104
rclavicle 1.93815e-015 1.774e-014
rhumerus -48.236 -23.4502 -48.7108
rradius 19.8966
rwrist 56.8181
rhand -9.10274 -3.49962
rfingers 7.12502
rthumb 16.8475 -32.7888
lclavicle 1.93815e-015 1.774e-014
lhumerus -54.6362 -10.3585 78.363
lradius 29.8067
lwrist -10.4128
lhand 5.02932 -13.6019
lfingers 7.12502
lthumb 30.3979 13.9125
rfemur 5.62286 -5.95821 20.3451
rtibia 27.6567
rfoot 20.3807 20.4688
rtoes -5.8889
lfemur 4.89484 5.83565 -11.8048
ltibia 28.6942
lfoot 17.4483 -25.1126
ltoes -13.1602
924
root 3.00639 1.205 18.3254 -101.658 -5.27226 0.340188
lowerback 12.8841 0.0590121 1.39229
upperback 2.41978 0.16461 -1.99113
thorax -4.66835 0.0512033 -2.90381
lowerneck 15.9898 -9.98469 -29.8363
upperneck -5.3863 -21.4659 44.4613
head 5.3986 -12.6892 22.4961
rclavicle -1.00883e-014 3.72302e-014
rhumerus -48.2462 -23.4604 -48.7061
rradius 19.8947
rwrist 56.8328
rhand -9.02478 -3.49217
rfingers 7.12502
rthumb 16.9226 -32.7749
lclavicle -1.00883e-014 3.72302e-014
lhumerus -54.6367 -10.3728 78.364
lradius 29.8028
lwrist -10.4135
lhand 5.02377 -13.6082
lfingers 7.12502
lthumb 30.3926 13.9073
rfemur 5.58691 -5.9559 20.3468
rtibia 27.6709
rfoot 20.5204 20.3294
rtoes -5.6479
lfemur 4.86745 5.83833 -11.8107
ltibia 28.6854
lfoot 17.4693 -25.1112
ltoes -13.1447
925
root 3.00605 1.20465 18.3248 -101.604 -5.2853 0.336296
lowerback 12.8314 0.0592915 1.40808
upperback 2.40501 0.166686 -1.99284
thorax -4.65471 0.0520508 -2.91444
lowerneck 15.9791 -9.99098 -29.8309
upperneck -5.37202 -21.4766 44.4562
head 5.40748 -12.6928 22.4861
rclavicle -2.68359e-015 9.0975e-015
rhumerus -48.2541 -23.4739 -48.7058
rradius 19.8901
rwrist 56.8353
rhand -8.96016 -3.49205
rfingers 7.12502
rthumb 16.9848 -32.7695
lclavicle -2.68359e-015 9.0975e-015
lhumerus -54.6331 -10.3862 78.361
lradius 29.7979
lwrist -10.4178
lhand 5.01838 -13.6158
lfingers 7.12502
lthumb 30.3875 13.9006
rfemur 5.51824 -5.95291 20.3708
rtibia 27.6857
rfoot 20.8362 20.0451
rtoes -5.19479
lfemur 4.80564 5.84395 -11.8015
ltibia 28.6773
lfoot 17.5265 -25.0944
ltoes -13.1109
926
root 3.00587 1.2043 18.3243 -101.565 -5.28041 0.33254
lowerback 12.7941 0.0615605 1.40784
upperback 2.39488 0.16907 -1.99999
thorax -4.64468 0.053241 -2.92189
lowerneck 15.9638 -9.99764 -29.8289
upperneck -5.34839 -21.4919 44.4525
head 5.42297 -12.6985 22.477
rclavicle -7.95139e-015 8.9391e-015
rhumerus -48.259 -23.4871 -48.7072
rradius 19.8812
rwrist 56.8307
rhand -8.94742 -3.49861
rfingers 7.12502
rthumb 16.9971 -32.775
lclavicle -7.95139e-015 8.9391e-015
lhumerus -54.6291 -10.399 78.3572
lradius 29.7938
lwrist -10.4217
lhand 5.01364 -13.6215
lfingers 7.12502
lthumb 30.383 13.8957
rfemur 5.46705 -5.95074 20.3714
rtibia 27.7021
rfoot 21.0006 19.8967
rtoes -4.96522
lfemur 4.76494 5.8438 -11.8128
ltibia 28.6671
lfoot 17.5971 -25.0618
ltoes -13.0965
927
root 3.00581 1.20394 18.3238 -101.531 -5.26372 0.329755
lowerback 12.7606 0.0663444 1.39963
upperback 2.38621 0.173501 -2.01275
thorax -4.63506 0.0555464 -2.93109
lowerneck 15.9499 -10.0042 -29.8258
upperneck -5.32409 -21.5091 44.4536
head 5.44034 -12.7058 22.4714
rclavicle 5.86415e-015 -2.47471e-014
rhumerus -48.2664 -23.5064 -48.7079
rradius 19.8707
rwrist 56.822
rhand -8.95669 -3.51086
rfingers 7.12502
rthumb 16.9881 -32.788
lclavicle 5.86415e-015 -2.47471e-014
lhumerus -54.6251 -10.419 78.353
lradius 29.7926
lwrist -10.4212
lhand 5.01241 -13.6243
lfingers 7.12502
lthumb 30.3818 13.8932
rfemur 5.41922 -5.95031 20.3569
rtibia 27.7211
rfoot 21.0889 19.8241
rtoes -4.86052
lfemur 4.73269 5.84297 -11.8378
ltibia 28.6523
lfoot 17.6966 -25.0095
ltoes -13.0848
928
root 3.00586 1.20366 18.3235 -101.517 -5.23113 0.326597
lowerback 12.7475 0.0724991 1.37607
upperback 2.38288 0.177628 -2.02947
thorax -4.63115 0.0578667 -2.93588
lowerneck 15.9391 -10.0092 -29.8227
upperneck -5.30453 -21.5235 44.4572
head 5.45509 -12.7123 22.4691
rclavicle 8.05078e-015 -8.06786e-015
rhumerus -48.2718 -23.526 -48.7071
rradius 19.8588
rwrist 56.8131
rhand -8.97475 -3.52103
rfingers 7.12502
rthumb 16.9707 -32.7996
lclavicle 8.05078e-015 -8.06786e-015
lhumerus -54.6218 -10.4383 78.3496
lradius 29.7932
lwrist -10.4165
lhand 5.01323 -13.6217
lfingers 7.12502
lthumb 30.3826 13.8957
rfemur 5.39355 -5.95113 20.3208
rtibia 27.7416
rfoot 21.0267 19.8909
rtoes -4.98582
lfemur 4.72788 5.83791 -11.8796
ltibia 28.6322
lfoot 17.7937 -24.9528
ltoes -13.0842
